<svg width="18" height="16" viewBox="0 0 18 16" fill="none" xmlns="http://www.w3.org/2000/svg">
<path d="M5.72622 16C3.95411 13.1493 1.95995 10.496 0 7.82315C0.45513 7.36857 0.898685 6.92017 1.35329 6.4831C1.38644 6.45115 1.51798 6.47692 1.57586 6.51558C2.60608 7.21343 3.6321 7.91798 4.65969 8.62048C4.98959 8.84622 5.32213 9.06888 5.68097 9.31163C5.85934 9.09774 6.03139 8.89622 6.19766 8.69006C7.92084 6.55887 9.78872 4.55705 11.8765 2.76603C12.9225 1.86871 14.0533 1.06623 15.1466 0.222003C15.3524 0.0632593 15.5807 -0.00580456 15.8517 0.00038026C16.5415 0.0163577 17.2323 0.00553428 18 0.00553428C17.7674 0.219426 17.5896 0.387962 17.4065 0.551345C16.0816 1.73368 14.902 3.04744 13.7712 4.405C11.9749 6.56248 10.3328 8.83076 8.79006 11.166C7.78141 12.6927 6.83063 14.2564 5.85355 15.8031C5.81777 15.8608 5.78042 15.917 5.72622 16Z" fill="#129047"/>
</svg>
