<svg width="113" height="8" viewBox="0 0 113 8" fill="none" xmlns="http://www.w3.org/2000/svg">
<path d="M112.473 8H94.1193C94.0483 7.99772 93.9786 7.98388 93.9142 7.95928C93.8497 7.93467 93.7917 7.89979 93.7436 7.85662L85.8909 0.732824C85.8218 0.670038 85.7763 0.592026 85.7599 0.508263C85.7435 0.4245 85.7568 0.338593 85.7983 0.26098C85.8398 0.183367 85.9076 0.117387 85.9936 0.0710573C86.0796 0.0247273 86.1799 4.24385e-05 86.2825 0H104.637C104.71 0.000510693 104.783 0.0134954 104.85 0.0381546C104.918 0.0628142 104.978 0.0986247 105.028 0.143379L112.865 7.26983C112.933 7.3327 112.978 7.41047 112.994 7.49379C113.009 7.57712 112.996 7.66246 112.954 7.73956C112.913 7.81667 112.846 7.88226 112.76 7.92846C112.675 7.97465 112.575 7.9995 112.473 8Z" fill="#00A651"/>
<path d="M87.2553 8H78.1023C78.0417 7.9996 77.9818 7.98877 77.9266 7.9682C77.8713 7.94763 77.8218 7.91777 77.7813 7.88052L69.7776 0.608032C69.7207 0.556104 69.6831 0.491684 69.6694 0.42252C69.6557 0.353356 69.6665 0.282392 69.7004 0.218163C69.7343 0.153935 69.7899 0.0991764 69.8606 0.0604734C69.9312 0.02177 70.0139 0.000770569 70.0986 0H79.2516C79.3123 6.58035e-05 79.3723 0.010745 79.4276 0.0313373C79.483 0.0519295 79.5324 0.0819688 79.5727 0.119482L87.5796 7.39197C87.6366 7.44406 87.6743 7.50872 87.6878 7.57813C87.7014 7.64753 87.6904 7.71871 87.6561 7.78303C87.6218 7.84736 87.5657 7.90209 87.4945 7.9406C87.4234 7.9791 87.3403 7.99973 87.2553 8Z" fill="#00A651"/>
<path d="M71.3122 8H62.644C62.5834 7.9996 62.5235 7.98877 62.4682 7.9682C62.413 7.94763 62.3635 7.91777 62.3229 7.88052L54.3257 0.608032C54.2688 0.556104 54.2312 0.491684 54.2175 0.42252C54.2038 0.353356 54.2146 0.282392 54.2485 0.218163C54.2824 0.153935 54.338 0.0991764 54.4087 0.0604734C54.4793 0.02177 54.562 0.000770569 54.6467 0H63.315C63.3756 6.58035e-05 63.4356 0.010745 63.4909 0.0313373C63.5463 0.0519295 63.5957 0.0819688 63.636 0.119482L71.6365 7.39197C71.6935 7.44406 71.7311 7.50872 71.7447 7.57813C71.7583 7.64753 71.7473 7.71871 71.713 7.78303C71.6787 7.84736 71.6226 7.90209 71.5514 7.9406C71.4803 7.9791 71.3972 7.99973 71.3122 8Z" fill="#00A651"/>
<path d="M55.9502 8H48.9739C48.9132 7.99993 48.8532 7.98925 48.7979 7.96866C48.7425 7.94807 48.6931 7.91803 48.6528 7.88052L40.6491 0.608032C40.5922 0.556104 40.5547 0.491684 40.541 0.42252C40.5273 0.353356 40.538 0.282392 40.5719 0.218163C40.6059 0.153935 40.6615 0.0991764 40.7321 0.0604734C40.8028 0.02177 40.8855 0.000770569 40.9702 0H47.9465C48.0072 6.58035e-05 48.0672 0.010745 48.1225 0.0313373C48.1778 0.0519295 48.2273 0.0819688 48.2676 0.119482L56.2744 7.39197C56.3315 7.44406 56.3691 7.50872 56.3827 7.57813C56.3963 7.64753 56.3853 7.71871 56.351 7.78303C56.3166 7.84736 56.2605 7.90209 56.1894 7.9406C56.1183 7.9791 56.0352 7.99973 55.9502 8Z" fill="#00A651"/>
<path d="M41.516 8H36.6521C36.5915 7.9996 36.5317 7.98877 36.4764 7.9682C36.4211 7.94763 36.3716 7.91777 36.3311 7.88052L28.3274 0.608032C28.2705 0.556104 28.2329 0.491684 28.2193 0.42252C28.2056 0.353356 28.2163 0.282392 28.2502 0.218163C28.2841 0.153935 28.3398 0.0991764 28.4104 0.0604734C28.4811 0.02177 28.5637 0.000770569 28.6485 0H33.5155C33.5762 -0.000103951 33.6363 0.0104995 33.6916 0.0311027C33.747 0.0517063 33.7964 0.0818357 33.8366 0.119482L41.8402 7.39197C41.8973 7.44406 41.9349 7.50872 41.9485 7.57813C41.9621 7.64753 41.9511 7.71871 41.9168 7.78303C41.8825 7.84736 41.8263 7.90209 41.7552 7.9406C41.6841 7.9791 41.601 7.99973 41.516 8Z" fill="#00A651"/>
<path d="M29.2617 8H25.4091C25.3484 8.0001 25.2884 7.9895 25.233 7.96889C25.1777 7.94829 25.1282 7.91816 25.0881 7.88052L17.0973 0.608032C17.0403 0.556104 17.0028 0.491685 16.9891 0.422521C16.9754 0.353356 16.9861 0.282393 17.0201 0.218164C17.054 0.153935 17.1096 0.0991769 17.1802 0.0604739C17.2509 0.0217705 17.3336 0.000771046 17.4183 9.53674e-07H21.2708C21.3316 -0.000102997 21.3916 0.0105 21.4469 0.0311031C21.5023 0.0517068 21.5517 0.0818367 21.5919 0.119483L29.5859 7.39197C29.643 7.44406 29.6806 7.50872 29.6942 7.57813C29.7078 7.64753 29.6968 7.71871 29.6624 7.78303C29.6281 7.84736 29.572 7.90209 29.5009 7.9406C29.4298 7.9791 29.3467 7.99973 29.2617 8Z" fill="#00A651"/>
<path d="M18.5355 8H16.0506C15.99 7.9996 15.9302 7.98877 15.8749 7.9682C15.8196 7.94763 15.7702 7.91777 15.7296 7.88052L7.70346 0.608032C7.64655 0.556104 7.60899 0.491684 7.59529 0.42252C7.5816 0.353356 7.59236 0.282392 7.62627 0.218163C7.66018 0.153935 7.71581 0.0991764 7.78646 0.0604734C7.85711 0.02177 7.93977 0.000770569 8.02451 0H10.5255C10.5861 0.000395775 10.6459 0.0112233 10.7012 0.0317941C10.7565 0.0523648 10.8059 0.0822277 10.8465 0.119482L18.863 7.39197C18.9203 7.44423 18.9579 7.50914 18.9714 7.57878C18.9849 7.64843 18.9736 7.71982 18.9389 7.78425C18.9042 7.84868 18.8476 7.90338 18.776 7.94168C18.7044 7.97999 18.6208 8.00025 18.5355 8Z" fill="#00A651"/>
<path d="M9.09359 8H8.4515C8.39079 8.0001 8.33076 7.9895 8.2754 7.96889C8.22003 7.94829 8.17062 7.91816 8.13046 7.88052L0.113952 0.608032C0.0570391 0.556104 0.0194765 0.491684 0.00578162 0.42252C-0.00791329 0.353356 0.00284264 0.282392 0.0367558 0.218163C0.0706691 0.153935 0.126295 0.0991764 0.196945 0.0604734C0.267595 0.02177 0.350259 0.000770569 0.434997 0H1.09635C1.15696 0.000395775 1.21681 0.0112233 1.27208 0.0317941C1.32735 0.0523648 1.37684 0.0822277 1.4174 0.119482L9.42106 7.39197C9.47833 7.44423 9.516 7.50914 9.52947 7.57878C9.54294 7.64843 9.53164 7.71982 9.49693 7.78425C9.46223 7.84868 9.40563 7.90338 9.33402 7.94168C9.26241 7.97999 9.17888 8.00025 9.09359 8Z" fill="#00A651"/>
</svg>
