<svg width="113" height="8" viewBox="0 0 113 8" fill="none" xmlns="http://www.w3.org/2000/svg">
<path d="M0.526567 8H18.8807C18.9517 7.99772 19.0214 7.98388 19.0858 7.95928C19.1503 7.93467 19.2082 7.89979 19.2564 7.85662L27.1091 0.732825C27.1782 0.670039 27.2236 0.592027 27.2401 0.508264C27.2565 0.424501 27.2432 0.338595 27.2017 0.260981C27.1602 0.183368 27.0924 0.117388 27.0064 0.0710583C26.9204 0.0247286 26.8201 4.30849e-05 26.7175 9.53674e-07H8.36329C8.28963 0.000511286 8.21686 0.0134962 8.1495 0.0381556C8.08214 0.0628149 8.0216 0.098626 7.97161 0.14338L0.134897 7.26983C0.0669003 7.3327 0.0222976 7.41047 0.006441 7.49379C-0.00941556 7.57712 0.00414334 7.66246 0.0455035 7.73956C0.0868637 7.81667 0.154267 7.88226 0.239603 7.92846C0.324938 7.97465 0.424577 7.9995 0.526567 8Z" fill="#00A651"/>
<path d="M25.7447 8H34.8977C34.9583 7.9996 35.0181 7.98877 35.0734 7.9682C35.1287 7.94763 35.1782 7.91777 35.2187 7.88052L43.2224 0.608033C43.2793 0.556105 43.3169 0.491685 43.3306 0.422521C43.3443 0.353357 43.3335 0.282393 43.2996 0.218164C43.2657 0.153936 43.2101 0.0991775 43.1394 0.0604744C43.0688 0.0217713 42.9861 0.000771404 42.9014 9.53674e-07H33.7483C33.6877 6.64685e-05 33.6277 0.010746 33.5724 0.0313382C33.517 0.0519304 33.4676 0.0819695 33.4273 0.119483L25.4204 7.39197C25.3633 7.44406 25.3257 7.50872 25.3122 7.57813C25.2986 7.64753 25.3096 7.71871 25.3439 7.78303C25.3782 7.84736 25.4343 7.90209 25.5054 7.9406C25.5766 7.9791 25.6597 7.99973 25.7447 8Z" fill="#00A651"/>
<path d="M41.6878 8H50.356C50.4166 7.9996 50.4765 7.98877 50.5318 7.9682C50.587 7.94763 50.6365 7.91777 50.6771 7.88052L58.6743 0.608033C58.7312 0.556105 58.7688 0.491685 58.7825 0.422521C58.7962 0.353357 58.7854 0.282393 58.7515 0.218164C58.7176 0.153936 58.662 0.0991775 58.5913 0.0604744C58.5207 0.0217713 58.438 0.000771404 58.3533 9.53674e-07H49.685C49.6244 6.64685e-05 49.5644 0.010746 49.5091 0.0313382C49.4537 0.0519304 49.4043 0.0819695 49.364 0.119483L41.3635 7.39197C41.3065 7.44406 41.2688 7.50872 41.2553 7.57813C41.2417 7.64753 41.2527 7.71871 41.287 7.78303C41.3213 7.84736 41.3774 7.90209 41.4486 7.9406C41.5197 7.9791 41.6028 7.99973 41.6878 8Z" fill="#00A651"/>
<path d="M57.0498 8H64.0261C64.0868 7.99993 64.1468 7.98925 64.2021 7.96866C64.2574 7.94807 64.3069 7.91803 64.3472 7.88052L72.3508 0.608033C72.4078 0.556105 72.4453 0.491685 72.459 0.422521C72.4727 0.353357 72.462 0.282393 72.428 0.218164C72.3941 0.153936 72.3385 0.0991775 72.2679 0.0604744C72.1972 0.0217713 72.1145 0.000771404 72.0298 9.53674e-07H65.0535C64.9928 6.64685e-05 64.9328 0.010746 64.8775 0.0313382C64.8222 0.0519304 64.7727 0.0819695 64.7324 0.119483L56.7256 7.39197C56.6685 7.44406 56.6309 7.50872 56.6173 7.57813C56.6037 7.64753 56.6147 7.71871 56.649 7.78303C56.6833 7.84736 56.7395 7.90209 56.8106 7.9406C56.8817 7.9791 56.9648 7.99973 57.0498 8Z" fill="#00A651"/>
<path d="M71.484 8H76.3479C76.4085 7.9996 76.4683 7.98877 76.5236 7.9682C76.5789 7.94763 76.6284 7.91777 76.6689 7.88052L84.6726 0.608033C84.7295 0.556105 84.7671 0.491685 84.7807 0.422521C84.7944 0.353357 84.7837 0.282393 84.7498 0.218164C84.7159 0.153936 84.6602 0.0991775 84.5896 0.0604744C84.5189 0.0217713 84.4363 0.000771404 84.3515 9.53674e-07H79.4845C79.4238 -0.000102907 79.3637 0.0105002 79.3084 0.0311036C79.253 0.051707 79.2036 0.0818368 79.1634 0.119483L71.1598 7.39197C71.1027 7.44406 71.0651 7.50872 71.0515 7.57813C71.0379 7.64753 71.0489 7.71871 71.0832 7.78303C71.1175 7.84736 71.1737 7.90209 71.2448 7.9406C71.3159 7.9791 71.399 7.99973 71.484 8Z" fill="#00A651"/>
<path d="M83.7383 8H87.5909C87.6516 8.0001 87.7116 7.9895 87.767 7.96889C87.8223 7.94829 87.8718 7.91816 87.9119 7.88052L95.9027 0.608033C95.9597 0.556105 95.9972 0.491686 96.0109 0.422522C96.0246 0.353357 96.0139 0.282394 95.9799 0.218165C95.946 0.153936 95.8904 0.099178 95.8198 0.0604749C95.7491 0.0217718 95.6664 0.000772358 95.5817 1.90735e-06H91.7292C91.6684 -0.000101954 91.6084 0.0105007 91.553 0.0311041C91.4977 0.0517075 91.4483 0.0818373 91.4081 0.119483L83.4141 7.39197C83.357 7.44406 83.3194 7.50872 83.3058 7.57813C83.2922 7.64753 83.3032 7.71871 83.3375 7.78303C83.3719 7.84736 83.428 7.90209 83.4991 7.9406C83.5702 7.9791 83.6533 7.99973 83.7383 8Z" fill="#00A651"/>
<path d="M94.4645 8H96.9494C97.01 7.9996 97.0698 7.98877 97.1251 7.9682C97.1804 7.94763 97.2298 7.91777 97.2704 7.88052L105.297 0.608033C105.353 0.556105 105.391 0.491685 105.405 0.422521C105.418 0.353357 105.408 0.282393 105.374 0.218164C105.34 0.153936 105.284 0.0991775 105.214 0.0604744C105.143 0.0217713 105.06 0.000771404 104.975 9.53674e-07H102.475C102.414 0.000396484 102.354 0.0112243 102.299 0.031795C102.244 0.0523658 102.194 0.0822287 102.153 0.119483L94.137 7.39197C94.0797 7.44423 94.0421 7.50914 94.0286 7.57878C94.0151 7.64843 94.0264 7.71982 94.0611 7.78425C94.0958 7.84868 94.1524 7.90338 94.224 7.94168C94.2956 7.97999 94.3792 8.00025 94.4645 8Z" fill="#00A651"/>
<path d="M103.906 8H104.548C104.609 8.0001 104.669 7.9895 104.725 7.96889C104.78 7.94829 104.829 7.91816 104.87 7.88052L112.886 0.608033C112.943 0.556105 112.981 0.491685 112.994 0.422521C113.008 0.353357 112.997 0.282393 112.963 0.218164C112.929 0.153936 112.874 0.0991775 112.803 0.0604744C112.732 0.0217713 112.65 0.000771404 112.565 9.53674e-07H111.904C111.843 0.000396484 111.783 0.0112243 111.728 0.031795C111.673 0.0523658 111.623 0.0822287 111.583 0.119483L103.579 7.39197C103.522 7.44423 103.484 7.50914 103.471 7.57878C103.457 7.64843 103.468 7.71982 103.503 7.78425C103.538 7.84868 103.594 7.90338 103.666 7.94168C103.738 7.97999 103.821 8.00025 103.906 8Z" fill="#00A651"/>
</svg>
