<svg width="17" height="17" viewBox="0 0 17 17" fill="none" xmlns="http://www.w3.org/2000/svg">
<path d="M16.9832 10.486C16.9832 11.5675 17.0186 12.6489 16.9748 13.7303C16.9071 15.4033 15.5098 16.9747 13.6733 16.987C13.0393 16.9914 12.4044 17.0034 11.7708 16.9782C10.9164 16.9438 10.2183 16.2177 10.2059 15.3613C10.1931 14.4344 10.2032 13.5074 10.2006 12.5805C10.2006 12.0111 10.0263 11.5061 9.59577 11.1155C9.12546 10.6882 8.57329 10.5544 7.97511 10.7721C7.33491 11.0051 6.9668 11.4933 6.84424 12.1572C6.81271 12.3606 6.79909 12.5663 6.80354 12.7721C6.79955 13.5887 6.80354 14.4053 6.80132 15.2223C6.79734 16.2605 6.1005 16.9791 5.0621 16.9879C4.32588 16.9941 3.57948 17.0321 2.85521 16.931C1.431 16.7293 0.30986 15.5582 0.0722707 14.1307C0.0274543 13.8475 0.00555659 13.5611 0.00678974 13.2744C0.00103803 11.4205 0.0147536 9.56658 0.000153155 7.71268C-0.0100229 6.40744 0.486836 5.37323 1.50931 4.55354C2.92733 3.41383 4.32234 2.24544 5.71691 1.07704C6.95087 0.0441494 8.32597 -0.264834 9.86654 0.232629C10.3899 0.402129 10.8399 0.706257 11.2646 1.05938C12.7158 2.26353 14.1688 3.46548 15.6236 4.66522C16.5527 5.43238 17.0031 6.41892 17 7.61866C16.9978 8.57518 17 9.53171 17 10.4878L16.9832 10.486Z" fill="white"/>
</svg>
