<svg width="21" height="15" viewBox="0 0 21 15" fill="none" xmlns="http://www.w3.org/2000/svg">
<path d="M0 0H21V12.439H0V0Z" fill="#ED1C24"/>
<path d="M7.96552 15V12.439H10.8621L7.96552 15Z" fill="#ED1C24"/>
<path d="M7.47077 3.80468V8.6761H5.53959V6.93631H4.09652V8.6761H2.17241V3.80468H4.09652V5.34266H5.53959V3.80468H7.47077Z" fill="white"/>
<path d="M12.0342 3.65854C12.2464 3.65854 12.4444 3.69797 12.6284 3.77684C12.8123 3.85571 12.9726 3.96242 13.1094 4.09696C13.2461 4.23151 13.3546 4.39157 13.4348 4.57715C13.515 4.75809 13.555 4.95062 13.555 5.15476V7.28427C13.555 7.49304 13.515 7.6879 13.4348 7.86884C13.3546 8.04978 13.2461 8.20752 13.1094 8.34206C12.9726 8.4766 12.8123 8.58331 12.6284 8.66218C12.4444 8.74105 12.2464 8.78049 12.0342 8.78049H9.55829C9.3555 8.78049 9.15979 8.74337 8.97115 8.66914C8.78723 8.59491 8.62453 8.48588 8.48305 8.34206C8.34157 8.20288 8.23075 8.04282 8.15058 7.86188C8.07512 7.6763 8.0374 7.48376 8.0374 7.28427V5.15476C8.0374 4.95526 8.07512 4.76505 8.15058 4.58411C8.23075 4.40317 8.34157 4.24079 8.48305 4.09696C8.62453 3.95778 8.78723 3.85107 8.97115 3.77684C9.15979 3.69797 9.3555 3.65854 9.55829 3.65854H12.0342ZM11.5673 5.69757C11.5673 5.56303 11.5178 5.44704 11.4187 5.34962C11.3244 5.25219 11.2065 5.20347 11.065 5.20347H10.5203C10.3836 5.20347 10.2657 5.25219 10.1666 5.34962C10.0723 5.44704 10.0252 5.56303 10.0252 5.69757V6.74145C10.0252 6.88063 10.0723 6.99894 10.1666 7.09637C10.2657 7.18916 10.3836 7.23555 10.5203 7.23555H11.065C11.2065 7.23555 11.3244 7.18916 11.4187 7.09637C11.5178 6.99894 11.5673 6.88063 11.5673 6.74145V5.69757Z" fill="white"/>
<path d="M18.8276 3.80468V5.46792H17.1935V8.66914H15.5029V5.46792H13.8759V3.80468H18.8276Z" fill="white"/>
</svg>
