<svg width="14" height="14" viewBox="0 0 14 14" fill="none" xmlns="http://www.w3.org/2000/svg">
<path d="M7.00877 0C3.11015 0 -0.00874253 3.12328 1.84118e-05 7.0219C0.00877935 10.8942 3.13205 14.0044 7.01315 14C10.8899 13.9912 14 10.8767 14 6.99562C13.9956 3.1189 10.8855 0.00438047 7.00877 0ZM6.26409 1.57259C6.75908 0.911139 7.24094 0.915519 7.74031 1.58135C8.36234 2.41364 8.60326 3.38611 8.8179 4.42866H5.18211C5.38362 3.39925 5.6333 2.41364 6.26409 1.57259ZM1.26597 5.55006H3.89864V8.45431H1.27035C1.00753 7.49499 1.01629 6.54005 1.26597 5.55006ZM1.7084 9.55381C2.43994 9.55381 3.13643 9.54505 3.82855 9.56696C3.9293 9.56696 4.07824 9.70713 4.1089 9.81226C4.38049 10.7059 4.63018 11.6039 4.87986 12.4756C4.03005 12.4756 2.15083 10.8198 1.7084 9.55381ZM4.1089 4.20526C4.07824 4.30163 3.94682 4.43304 3.85483 4.43304C3.14958 4.45494 2.44432 4.44618 1.65584 4.44618C2.40052 2.98748 3.47811 2.0194 4.89738 1.46308C4.63456 2.38736 4.38049 3.2985 4.1089 4.20526ZM7.73155 12.4318C7.24532 13.0757 6.75908 13.0801 6.27723 12.4449C5.63768 11.6083 5.39676 10.6183 5.17773 9.57572H8.8179C8.60764 10.6051 8.36234 11.5951 7.73155 12.4318ZM8.99312 8.45431H5.00251V5.55006H8.99312V8.45431ZM12.2872 4.4418C11.5382 4.4418 10.811 4.44618 10.0839 4.43304C10.0182 4.43304 9.9174 4.33667 9.89988 4.27096C9.77285 3.79787 9.68524 3.31164 9.54068 2.84293C9.40051 2.38298 9.19901 1.94055 9.02379 1.48498C10.2021 1.73029 11.858 3.21089 12.2872 4.4418ZM9.10264 12.5325C9.36546 11.6126 9.61515 10.7103 9.88674 9.81664C9.92178 9.71151 10.0663 9.57134 10.1627 9.56696C10.8548 9.54505 11.5513 9.55381 12.3354 9.55381C11.5995 11.0169 10.5131 11.985 9.10264 12.5325ZM10.097 8.4587V5.5413H12.7209C12.9969 6.50938 12.9794 7.47309 12.734 8.4587H10.097Z" fill="white"/>
</svg>
