<svg width="12" height="12" viewBox="0 0 12 12" fill="none" xmlns="http://www.w3.org/2000/svg">
<path d="M6.00397 8.40981e-08C7.79564 0.000535607 9.26325 1.45876 9.26914 3.245C9.27048 3.64905 9.14702 4.02687 9.01151 4.39959C8.6663 5.34934 8.19602 6.24018 7.70297 7.11871C7.41079 7.6395 7.10468 8.1528 6.79884 8.66557C6.54977 9.08301 6.14832 9.24152 5.71687 9.10416C5.50236 9.03588 5.34381 8.89664 5.22972 8.70734C4.48145 7.46653 3.74041 6.22037 3.1839 4.87861C3.01089 4.46117 2.85824 4.02633 2.77147 3.58452C2.6397 2.91191 2.81967 2.27249 3.14587 1.68047C3.7206 0.638879 4.81916 -0.000267677 6.00397 8.40981e-08ZM6.01441 1.73536C5.2873 1.72974 4.69383 2.3081 4.68928 3.02678C4.68472 3.75268 5.27364 4.35327 5.99567 4.35862C6.70832 4.36398 7.31036 3.7674 7.31411 3.05195C7.31813 2.32685 6.73965 1.74099 6.01441 1.73536Z" fill="white"/>
<path d="M6.24205 12C4.70936 11.985 3.43752 11.8725 2.19862 11.51C1.64505 11.348 1.10835 11.1429 0.63941 10.7943C0.403466 10.6189 0.199393 10.4132 0.0882507 10.1356C-0.100022 9.66619 0.0223687 9.25223 0.365705 8.91191C0.556388 8.72287 0.788581 8.57319 1.01301 8.4219C1.18066 8.30918 1.38473 8.36701 1.49213 8.53249C1.59604 8.69288 1.55265 8.89691 1.38473 9.01419C1.26422 9.09827 1.13326 9.16815 1.01836 9.25919C0.600577 9.59015 0.605397 9.87826 1.02801 10.2063C1.36411 10.4671 1.7519 10.6264 2.15041 10.7581C3.01893 11.0452 3.91664 11.178 4.82586 11.2489C5.63305 11.3119 6.4397 11.3119 7.24582 11.2446C8.27957 11.1584 9.30182 11.0061 10.2651 10.598C10.5252 10.488 10.7783 10.3439 11.0043 10.1749C11.3961 9.88227 11.3902 9.59068 11.0142 9.28249C10.9079 9.19547 10.7898 9.12156 10.6722 9.04927C10.4652 8.92181 10.3961 8.72099 10.5046 8.54186C10.616 8.35791 10.8275 8.30918 11.0268 8.44279C11.233 8.58149 11.4438 8.72126 11.6211 8.89343C12.1294 9.38718 12.1224 10.0638 11.6235 10.5677C11.2601 10.9346 10.8083 11.1549 10.3337 11.3327C9.44242 11.6666 8.51525 11.8393 7.56987 11.9178C7.04603 11.9609 6.52004 11.9831 6.24205 12Z" fill="white"/>
<path d="M2.7404 9.21233C2.88743 9.28972 3.02884 9.38183 3.18256 9.44234C3.72247 9.65441 4.29131 9.74036 4.86443 9.79686C5.62153 9.87183 6.37971 9.87103 7.13682 9.79739C7.68771 9.74357 8.23485 9.66217 8.75628 9.46671C8.9317 9.40084 9.09507 9.30257 9.26004 9.19466C8.78762 8.80694 8.21825 8.73813 7.64914 8.62031C7.76993 8.4136 7.88214 8.21814 7.99971 8.02588C8.01364 8.00312 8.05997 7.9817 8.08568 7.98706C8.61889 8.09898 9.15211 8.21546 9.60444 8.54427C9.80905 8.69315 9.95903 8.88352 9.96921 9.15289C9.98045 9.45225 9.8278 9.67288 9.59239 9.81962C9.36395 9.96207 9.11676 10.0858 8.8626 10.1739C8.23967 10.3899 7.58862 10.4871 6.93328 10.5161C6.31463 10.5434 5.6925 10.5495 5.07466 10.515C4.29505 10.4713 3.51867 10.3648 2.79691 10.0384C2.59792 9.94841 2.40617 9.81935 2.24629 9.67048C1.95544 9.39977 1.96508 8.97911 2.23852 8.68886C2.47259 8.44065 2.77468 8.30543 3.08909 8.20234C3.34673 8.11773 3.6132 8.05989 3.877 7.99643C3.91556 7.98706 3.9852 7.9983 4.0018 8.02454C4.12285 8.21519 4.23373 8.41226 4.35558 8.62085C3.78889 8.73492 3.22461 8.8115 2.75326 9.1537C2.7487 9.17324 2.74469 9.19279 2.7404 9.21233Z" fill="white"/>
</svg>
