<svg width="15" height="15" viewBox="0 0 15 15" fill="none" xmlns="http://www.w3.org/2000/svg">
<path d="M3.35729e-05 5.26968C0.00358954 4.75682 0.310825 4.32423 0.797282 4.16331C1.45691 3.94479 2.11833 3.73295 2.77902 3.51889C4.92576 2.82355 7.07215 2.12821 9.21889 1.43287C10.6086 0.982817 11.9989 0.534991 13.3876 0.0812185C13.8402 -0.0666942 14.2581 -0.0261854 14.6154 0.316095C14.9653 0.651314 15.087 1.07164 14.9369 1.54734C14.3612 3.37358 13.7773 5.19647 13.1962 7.02085C12.5462 9.06227 11.8958 11.1033 11.2454 13.1447C11.137 13.4848 11.0314 13.8259 10.9176 14.1641C10.7412 14.6893 10.3596 14.981 9.83656 14.9992C9.33801 15.0167 8.9081 14.7435 8.71785 14.244C8.33274 13.2328 7.96541 12.2145 7.59025 11.1992C7.26844 10.3281 6.94342 9.45843 6.62801 8.58508C6.57787 8.44571 6.4815 8.40483 6.36735 8.3647C4.60075 7.74666 2.83414 7.12788 1.06789 6.50873C0.955878 6.46933 0.84351 6.43068 0.732919 6.3872C0.275621 6.20696 -0.0035224 5.78069 3.35729e-05 5.26968Z" fill="#099A4B"/>
</svg>
