<svg width="18" height="16" viewBox="0 0 18 16" fill="none" xmlns="http://www.w3.org/2000/svg">
<path d="M15.3538 4.07242C15.3538 4.95174 15.3462 5.83145 15.357 6.71076C15.3626 7.16841 15.1903 7.53012 14.8698 7.84828C12.8414 9.8611 10.8187 11.8795 8.79269 13.8944C8.42838 14.2569 8.0697 14.6262 7.68692 14.9687C7.21537 15.3908 6.47832 15.4044 6.01601 14.9751C5.35568 14.3624 4.72467 13.7177 4.08483 13.083C2.89069 11.8975 1.70017 10.7084 0.506037 9.52257C-0.0281711 8.99218 -0.148669 8.38665 0.188725 7.80791C0.271066 7.66642 0.388752 7.54092 0.506037 7.42421C2.84249 5.09563 5.18136 2.76984 7.51903 0.442461C7.81264 0.15029 8.15847 -0.001192 8.5786 7.06327e-06C10.3792 0.00400394 12.1799 -0.00159169 13.9805 0.00320456C14.8003 0.005203 15.3486 0.556772 15.3526 1.37453C15.357 2.27383 15.3538 3.17313 15.3538 4.07242ZM11.728 2.63115C11.1862 2.63155 10.7476 3.06681 10.7436 3.60799C10.7395 4.14397 11.1786 4.58762 11.7208 4.59522C12.2586 4.60321 12.7274 4.13837 12.7197 3.60519C12.7121 3.07041 12.2646 2.63075 11.728 2.63115Z" fill="#00A651"/>
<path d="M16.6765 1.34096C17.3665 1.28181 17.9839 1.88973 17.9947 2.62755C18.0044 3.26665 17.9971 3.90655 17.9971 4.54566C17.9971 5.69116 17.9915 6.83707 17.9999 7.98257C18.0032 8.44261 17.8509 8.81992 17.5224 9.14566C15.7061 10.9455 13.8954 12.7508 12.0827 14.5546C11.7373 14.8984 11.3954 15.2461 11.046 15.5854C10.4423 16.1722 9.53014 16.1334 9.03891 15.4863C9.4968 15.0351 9.95911 14.583 10.4174 14.1274C12.349 12.2069 14.2766 10.2828 16.2122 8.36667C16.5303 8.05172 16.6837 7.69959 16.6805 7.24754C16.6684 5.35582 16.6761 3.4645 16.6765 1.57278C16.6765 1.49444 16.6765 1.4165 16.6765 1.34096Z" fill="#00A651"/>
</svg>
