<svg width="12" height="12" viewBox="0 0 12 12" fill="none" xmlns="http://www.w3.org/2000/svg">
<path d="M6.34671 5.60863C6.09355 5.5069 5.84951 5.43563 5.62612 5.31471C4.66283 4.79236 4.12406 3.64013 4.25708 2.42028C4.38393 1.25922 5.19865 0.286089 6.23837 0.0603949C6.37782 0.0302414 6.52103 0.0055704 6.66262 0.00496124C7.62779 8.79554e-05 8.59269 -0.00265327 9.55759 0.00374292C10.7148 0.0113574 11.7368 0.982969 11.9554 2.27195C12.2123 3.78602 11.334 5.25989 10.0006 5.54254C9.81745 5.58122 9.62892 5.59523 9.44254 5.60224C9.17919 5.61198 8.91316 5.62965 8.65249 5.59828C8.35616 5.56264 8.15395 5.6863 7.95952 5.92935C7.65058 6.31587 7.31215 6.67162 6.98899 7.04351C6.86697 7.18392 6.72752 7.24149 6.56447 7.16534C6.39927 7.08828 6.34483 6.9296 6.34617 6.73497C6.34859 6.35485 6.34671 5.97474 6.34671 5.60863ZM8.10434 3.19971C8.29474 3.20214 8.4594 3.02335 8.46343 2.80954C8.46718 2.59816 8.30547 2.41115 8.11533 2.40719C7.91957 2.40323 7.76456 2.5741 7.76215 2.79705C7.75973 3.02122 7.90911 3.19696 8.10434 3.19971ZM7.04853 2.81624C7.05389 2.59176 6.90747 2.41358 6.71224 2.40719C6.52183 2.40079 6.35502 2.57592 6.34752 2.79035C6.34001 3.00081 6.49984 3.19209 6.68944 3.19971C6.88441 3.20732 7.04316 3.03828 7.04853 2.81624ZM9.86438 2.80954C9.86706 2.58537 9.71769 2.40993 9.52192 2.40719C9.33098 2.40445 9.16659 2.58323 9.1631 2.79705C9.15961 3.00904 9.32106 3.19575 9.51119 3.19971C9.70696 3.20367 9.8617 3.03249 9.86438 2.80954Z" fill="white"/>
<path d="M1.71986 1.84371C1.95666 1.84371 2.19346 1.84189 2.43026 1.84432C2.64668 1.84645 2.7569 1.92869 2.82421 2.15621C3.05431 2.93411 3.27931 3.71414 3.50833 4.49265C3.55178 4.64068 3.5271 4.77104 3.45309 4.89622C3.29647 5.16151 3.15085 5.43654 2.98056 5.69026C2.87973 5.84011 2.90145 5.9525 2.976 6.09687C3.3721 6.86381 3.88458 7.51622 4.49495 8.06629C4.7457 8.29229 5.02594 8.47565 5.29197 8.67941C5.36706 8.73698 5.43008 8.7318 5.50732 8.67058C5.75243 8.47595 6.00559 8.29412 6.25178 8.10132C6.37594 8.00385 6.50279 7.98101 6.64492 8.03522C7.32126 8.2932 7.99868 8.54783 8.67475 8.80764C8.88205 8.88714 8.94963 9.00257 8.9499 9.2508C8.95044 9.76341 8.95178 10.276 8.94963 10.7886C8.94695 11.477 8.48408 12.006 7.87719 11.9999C6.63178 11.9875 5.47031 11.6073 4.38688 10.9226C2.90654 9.98698 1.74963 8.67667 0.927669 6.99234C0.413307 5.93697 0.085327 4.81276 0.0164056 3.60297C0.000851389 3.33159 -0.0136301 3.05259 0.0228419 2.78609C0.0925677 2.27896 0.490542 1.88696 0.942419 1.85468C1.2004 1.8361 1.46054 1.85133 1.71959 1.85133C1.71986 1.84889 1.71986 1.84615 1.71986 1.84371Z" fill="white"/>
</svg>
