<svg width="32" height="32" viewBox="0 0 32 32" fill="none" xmlns="http://www.w3.org/2000/svg">
<path d="M15.9507 31.9845C11.993 31.9845 8.03529 31.9855 4.07758 31.9845C1.76106 31.9834 0.0116518 30.2579 0.00764398 27.9367C-0.00237555 22.9907 -0.0033775 18.0436 0.00964789 13.0975C0.0136557 11.768 0.538679 10.653 1.61578 9.85191C5.28393 7.12369 8.9631 4.40951 12.6373 1.68932C13.026 1.40156 13.4088 1.10578 13.7925 0.809994C15.1692 -0.24981 16.7894 -0.273874 18.1851 0.762869C22.229 3.76882 26.2678 6.78079 30.3097 9.78874C31.4509 10.639 31.994 11.791 31.996 13.1978C32.002 18.0777 31.995 22.9566 32 27.8365C32.002 30.2529 30.1314 32.0346 27.8239 31.9995C23.8661 31.9413 19.9084 31.9845 15.9507 31.9845ZM28.0964 14.5072C28.0964 14.2235 28.0743 13.9367 28.1014 13.656C28.1455 13.1917 27.9882 12.8699 27.5844 12.6122C27.0514 12.2713 26.5544 11.8743 26.0454 11.4973C23.0686 9.29343 20.0968 7.08258 17.114 4.88577C16.0118 4.07463 15.9878 4.07162 14.8736 4.89279C11.3267 7.5037 7.78781 10.1236 4.25893 12.7586C4.07758 12.894 3.9333 13.1897 3.91927 13.4193C3.87618 14.1523 3.87618 14.8902 3.92027 15.6232C3.9343 15.8498 4.0906 16.1365 4.27396 16.2729C7.47219 18.6522 10.6835 21.0154 13.8967 23.3747C15.2423 24.3633 16.8254 24.3543 18.17 23.3616C21.0827 21.212 23.9714 19.0302 26.9141 16.9236C27.7948 16.2909 28.411 15.6623 28.0964 14.5072Z" fill="white"/>
</svg>
