<svg width="11" height="11" viewBox="0 0 11 11" fill="none" xmlns="http://www.w3.org/2000/svg">
<path d="M10.9891 6.78507C10.9891 7.48483 11.012 8.18459 10.9837 8.88434C10.9399 9.96682 10.0358 10.9836 8.84742 10.9916C8.43717 10.9945 8.02636 11.0022 7.6164 10.9859C7.06358 10.9636 6.61183 10.4938 6.60381 9.93969C6.59551 9.3399 6.6021 8.74011 6.60038 8.14032C6.60038 7.77187 6.48758 7.44513 6.20903 7.19236C5.90471 6.91588 5.54742 6.82934 5.16037 6.97015C4.74612 7.12096 4.50793 7.43685 4.42863 7.86641C4.40823 7.99801 4.39941 8.13114 4.40229 8.26427C4.39971 8.79266 4.40229 9.32105 4.40086 9.84972C4.39828 10.5215 3.94738 10.9865 3.27547 10.9922C2.7991 10.9962 2.31614 11.0207 1.84749 10.9553C0.925942 10.8248 0.200498 10.0671 0.0467634 9.1434C0.0177645 8.96013 0.00359544 8.77484 0.00439336 8.5893C0.000671669 7.38972 0.00954647 6.19014 9.91006e-05 4.99055C-0.00648543 4.14599 0.315011 3.4768 0.976614 2.94641C1.89415 2.20895 2.79681 1.45293 3.69918 0.696906C4.49762 0.0285673 5.38739 -0.171363 6.38423 0.150525C6.72291 0.260201 7.01406 0.45699 7.28889 0.685482C8.2279 1.46464 9.16806 2.24237 10.1094 3.01867C10.7106 3.51507 11.002 4.15342 11 4.92972C10.9986 5.54865 11 6.16757 11 6.78622L10.9891 6.78507Z" fill="white"/>
</svg>
