<svg width="14" height="14" viewBox="0 0 14 14" fill="none" xmlns="http://www.w3.org/2000/svg">
<path d="M5.11755 10.2646C2.29947 10.2661 0.00125091 7.96429 5.12212e-07 5.13887C-0.00124988 2.29524 2.28697 -0.00313579 5.11661 3.21149e-06C7.9475 0.00314222 10.2207 2.28645 10.2238 5.13008C10.2273 7.96209 7.93875 10.2627 5.11755 10.2646ZM9.07974 5.13793C9.08568 2.93089 7.32825 1.15924 5.12505 1.15108C2.91717 1.14292 1.14943 2.90986 1.14567 5.12851C1.14192 7.32676 2.90091 9.10029 5.09192 9.10783C7.30261 9.11567 9.0738 7.3525 9.07974 5.13793Z" fill="white"/>
<path d="M8.58958 9.62262C8.95595 9.27262 9.30168 8.9424 9.64741 8.61186C9.6321 8.5811 9.61678 8.55034 9.60177 8.51926C9.73025 8.65361 9.85779 8.78827 9.98721 8.922C10.0779 9.01554 10.1729 9.10531 10.262 9.20042C10.4433 9.3941 10.6208 9.56298 10.9163 9.60033C11.0894 9.62231 11.272 9.75509 11.4048 9.88504C12.1685 10.6334 12.9247 11.3902 13.6718 12.1555C14.2564 12.7547 14.025 13.7284 13.2551 13.9494C12.8647 14.0615 12.5068 13.9909 12.2148 13.7021C11.4327 12.9277 10.6571 12.1464 9.87967 11.3676C9.69899 11.1868 9.61553 10.9611 9.57302 10.7128C9.5602 10.6378 9.52144 10.5549 9.46892 10.5006C9.17008 10.1942 8.86467 9.89571 8.58958 9.62262Z" fill="white"/>
<path d="M3.22133 3.04389C3.46453 3.04232 3.58238 3.2451 3.48547 3.41147C3.45453 3.46483 3.40732 3.50878 3.36606 3.55587C2.56112 4.47559 2.56174 5.78519 3.36762 6.70335C3.40545 6.74635 3.44702 6.78778 3.47766 6.8355C3.54862 6.94662 3.53987 7.05711 3.44296 7.1472C3.34699 7.23603 3.23071 7.25173 3.13224 7.16164C3.02502 7.06402 2.92686 6.95321 2.83839 6.83801C2.01939 5.76981 2.09816 4.18429 3.01939 3.20179C3.08722 3.1299 3.17663 3.07842 3.22133 3.04389Z" fill="white"/>
</svg>
