<svg width="17" height="20" viewBox="0 0 17 20" fill="none" xmlns="http://www.w3.org/2000/svg">
<path d="M0.0197103 7.52375C0.165028 7.52375 0.275688 7.52375 0.385741 7.52375C5.79715 7.52375 11.2086 7.52626 16.62 7.51686C16.9149 7.51623 17.0006 7.60021 17 7.9029C16.9909 11.2664 17.0006 14.6292 16.9909 17.9927C16.9872 19.2335 16.2229 20.0044 15.0336 20C10.6662 19.9843 6.29877 19.9937 1.93073 19.9943C0.76454 19.9943 0.00633377 19.2223 0.00633377 18.0215C0.0045097 14.6267 0.00572574 11.2325 0.00633377 7.83773C0.00633377 7.74623 0.0136301 7.6541 0.0197103 7.52375ZM7.3239 12.5342C7.3239 11.9495 7.32877 11.3654 7.32269 10.7807C7.31721 10.2298 7.07279 9.97225 6.54077 9.96911C5.41714 9.96285 4.2929 9.96347 3.16927 9.96911C2.62509 9.97162 2.37337 10.238 2.37155 10.8007C2.3679 11.9488 2.3679 13.0969 2.37155 14.2444C2.37337 14.8066 2.6257 15.0691 3.17353 15.0723C4.28743 15.0779 5.40133 15.0773 6.51462 15.0723C7.0813 15.0698 7.31965 14.8172 7.3239 14.2244C7.32755 13.6616 7.3239 13.0976 7.3239 12.5342Z" fill="#00A651"/>
<path d="M0.0239665 6.22461C0.0239665 5.53462 -0.03866 4.85153 0.038559 4.18535C0.162596 3.11496 0.883713 2.53213 1.9739 2.51082C2.37884 2.50268 2.7844 2.50957 3.18934 2.50957C3.6411 2.50957 3.6332 2.50894 3.64353 2.0571C3.65265 1.68296 3.65448 1.30444 3.71163 0.935942C3.79919 0.374424 4.27041 0.00718123 4.84377 0.00279437C5.42261 -0.00159249 5.91268 0.380691 5.99355 0.953489C6.05131 1.36335 6.05617 1.78386 6.05861 2.19936C6.05982 2.42183 6.1115 2.51458 6.34681 2.51333C7.78479 2.50456 9.22337 2.50581 10.6613 2.5127C10.8729 2.51396 10.9483 2.44001 10.9453 2.22317C10.9392 1.84778 10.9307 1.46926 10.969 1.09763C11.0353 0.451507 11.4335 0.0736108 12.0683 0.00592784C12.5724 -0.0479679 13.1184 0.269766 13.2491 0.791176C13.3506 1.19727 13.3409 1.63596 13.3561 2.06086C13.3725 2.50832 13.3598 2.50393 13.7836 2.51082C14.3089 2.51897 14.8397 2.49265 15.3589 2.55971C16.3646 2.68943 16.9526 3.37316 16.9909 4.40657C17.0103 4.92798 16.9903 5.45065 16.997 5.97206C16.9994 6.16571 16.9447 6.25031 16.7379 6.25031C11.1976 6.24467 5.65731 6.2453 0.116994 6.24404C0.0963213 6.24404 0.0762565 6.2359 0.0239665 6.22461Z" fill="#00A651"/>
</svg>
