<svg width="14" height="10" viewBox="0 0 14 10" fill="none" xmlns="http://www.w3.org/2000/svg">
<path d="M0 2.81717C0.892115 3.34604 1.73906 3.8475 2.58318 4.34896C3.87054 5.11349 5.16354 5.87253 6.44807 6.64253C6.82355 6.86723 7.16515 6.86449 7.54063 6.63979C9.57895 5.42587 11.6229 4.22017 13.6669 3.01447C13.7657 2.95693 13.8645 2.90212 14 2.8254C14 2.95145 14 3.03639 14 3.12134C14 4.72163 14 6.32193 14 7.92222C14 9.12244 13.1305 9.99109 11.8996 9.99384C8.62755 10.0021 5.35834 10.0021 2.08631 9.99384C0.86953 9.99109 0.00282315 9.1197 0 7.93592C0 6.32741 0 4.71615 0 3.10764C0 3.02817 0 2.95145 0 2.81717Z" fill="white"/>
<path d="M7.01553 0.00295945C8.67272 0.00295945 10.3299 -0.00526124 11.9899 0.00569968C12.8425 0.0111801 13.5681 0.540044 13.8617 1.31553C13.9294 1.49638 13.904 1.59229 13.7262 1.69642C11.558 2.97337 9.39262 4.25853 7.23009 5.54644C7.06917 5.64235 6.95624 5.65057 6.78968 5.55192C4.6215 4.25853 2.44767 2.97063 0.268199 1.69368C0.0875177 1.58681 0.0734019 1.48816 0.141157 1.31005C0.437588 0.534564 1.16031 0.0248813 2.01573 0.00295945C2.04396 0.00295945 2.06937 0.000219218 2.0976 0.000219218C3.73785 0.000219218 5.37528 0.000219218 7.01553 0.00295945Z" fill="white"/>
</svg>
