<svg width="28" height="28" viewBox="0 0 28 28" fill="none" xmlns="http://www.w3.org/2000/svg">
<path d="M17.2001 23.1596C19.5759 22.3766 22.083 20.2356 23.1903 17.2057C23.0381 17.1364 22.8832 17.0671 22.729 16.9978C21.3084 16.3368 20.4366 14.755 20.6596 13.2514C20.9124 11.5629 22.151 10.2797 23.755 10.0434C26.0189 9.71012 28.0578 11.4153 27.9987 13.6942C27.8431 19.6529 25.0492 23.9744 19.7322 26.6579C17.8448 27.6099 15.8052 28.0021 13.692 28C11.8102 28 10.2673 26.6226 10.0235 24.7372C9.79565 22.9732 10.9849 21.2209 12.7237 20.7601C13.592 20.5204 14.5185 20.6084 15.3259 21.0072C16.1333 21.406 16.765 22.0877 17.1001 22.9219C17.1307 22.994 17.1605 23.0674 17.2001 23.1596Z" fill="#00A651"/>
<path d="M12.0339 15.9848C14.3374 16.2537 15.4725 15.0841 15.7934 13.9637C15.1509 13.7738 14.9952 13.3034 15.0071 12.6798C15.03 11.2601 15.0328 9.839 15.0071 8.4193C14.9946 7.72642 15.1113 7.16727 15.8872 7.00998C15.6232 4.67845 13.3537 2.00464 10.0124 1.99771C6.86554 1.99217 4.46754 4.4304 4.11604 6.98643C4.16953 7.01068 4.22788 7.04116 4.28971 7.06403C4.75722 7.23517 5.00383 7.55805 5.00383 8.05207C5.00892 9.68033 5.00892 11.3086 5.00383 12.9369C5.00383 13.575 4.57035 14.0094 3.93126 13.9935C3.34496 13.9782 2.7399 13.9935 2.17792 13.8591C0.869854 13.5376 0.00777022 12.3701 0.00221287 11.0273C0.00221287 10.4979 -0.0179325 9.96025 0.0633437 9.4406C0.223812 8.41791 0.841372 7.7084 1.77153 7.27813C1.96187 7.18944 2.0494 7.08689 2.07788 6.87626C2.57249 3.27815 5.44494 0.48932 9.09126 0.0555792C13.3926 -0.455764 17.3689 2.61922 17.9247 6.89081C17.9511 7.09313 18.0275 7.18459 18.2025 7.26773C19.3897 7.82204 19.9948 8.76573 20.0038 10.0628C20.008 10.658 19.9948 11.2705 19.8649 11.8449C19.6565 12.7394 19.0521 13.3616 18.2074 13.7226C17.9844 13.8182 17.9024 13.9464 17.851 14.1702C17.3516 16.3472 15.3599 17.9678 13.1189 18.0059C11.7762 18.0288 10.4327 18.0156 9.08987 18.0101C8.42716 18.0101 8.0048 17.5812 7.99854 16.9271C7.99854 16.6271 7.99299 16.3264 7.99854 16.0264C8.00966 15.4562 8.3952 15.0238 8.96344 15.003C9.65811 14.9781 10.3528 14.9732 11.0474 15.003C11.6483 15.0307 11.9297 15.4402 12.0339 15.9848Z" fill="#00A651"/>
</svg>
